<svg width="513" height="100" viewBox="0 0 513 100" fill="none" xmlns="http://www.w3.org/2000/svg">
<path d="M146.199 67.9634C136.251 67.8393 129.135 60.6992 129.135 50.0186C129.135 39.3498 136.251 32.0855 146.199 32.0855C151.199 32.0855 155.827 34.503 158.972 38.1085L166.886 31.66C161.898 25.6252 154.415 21.795 146.252 21.795C130.683 21.795 118.649 33.1081 118.649 50.0186C118.649 66.9409 130.683 78.2362 146.252 78.2362C154.415 78.2362 161.898 74.4061 166.886 68.3654L158.972 61.9582C155.81 65.546 151.182 68.0225 146.199 67.9634Z" fill="white"/>
<path d="M311.726 22.8182L297.529 63.5902L283.32 22.8182H272.385L291.411 77.1788H303.712L322.744 22.8182H311.726Z" fill="white"/>
<path d="M239.534 67.8423V54.1117H262.06V44.7788H239.534V32.1713H264.011V22.8205H229.445V77.1812H264.371V67.8423H239.534Z" fill="white"/>
<path d="M451.487 45.9392C451.487 45.9392 445.883 44.6506 444.039 44.1482C439.517 42.9306 438.235 40.6905 438.235 37.7647C438.235 34.2301 441.551 30.9792 446.587 30.9792C453.378 30.9792 455.772 35.5718 456.304 38.5154L465.572 35.3531C464.277 29.3656 459.241 21.794 446.522 21.794C436.414 21.794 427.909 29.0228 427.909 38.5154C427.909 46.5775 433.288 51.3829 441.929 53.8063C443.773 54.3264 449.376 55.6623 449.376 55.6623C453.526 56.4957 455.86 59.2737 455.86 62.3532C455.86 66.1301 452.763 68.9022 447.201 68.9022C439.665 68.9022 435.971 64.1737 435.516 58.9013L425.97 62.1463C427.093 69.5997 433.388 78.1702 447.113 78.1702C459.549 78.1702 466.405 69.8893 466.405 61.6734C466.405 54.155 461.198 47.8247 451.487 45.9392Z" fill="white"/>
<path d="M187.383 48.5291V32.5821H198.211C202.26 32.5821 205.806 35.9984 205.806 40.3842C205.806 44.5689 203.082 48.5291 198.128 48.5291H187.383ZM205.517 56.7804C211.504 54.2447 216.611 48.1686 216.611 40.3842C216.611 30.8621 210.021 22.7881 198.572 22.7881H177.299V77.1782H187.312V58.329H195.019L206.533 77.1782H217.781L205.517 56.7804Z" fill="white"/>
<path d="M340.726 67.8403V54.1452H363.252V44.8123H340.726V32.2048H365.202V22.854H330.636V77.1792H365.563V67.8403H340.726Z" fill="white"/>
<path d="M487.227 67.8758V54.1453H509.752V44.8123H487.227V32.2048H511.703V22.8541H477.137V77.2147H512.063V67.8758H487.227Z" fill="white"/>
<path d="M388.714 48.5291V32.5821H399.542C403.591 32.5821 407.137 35.9984 407.137 40.3842C407.137 44.5689 404.407 48.5291 399.459 48.5291H388.714ZM406.848 56.7804C412.835 54.2447 417.942 48.1686 417.942 40.3842C417.942 30.8621 411.352 22.7881 399.903 22.7881H378.63V77.1782H388.649V58.329H396.35L407.864 77.1782H419.112L406.848 56.7804Z" fill="white"/>
<path opacity="0.4" d="M52.3214 45.7518L21.3139 27.8483C11.8391 22.3809 0 29.2136 0 40.1543V75.9613C0 86.8961 11.8391 93.7288 21.3139 88.2614L52.3214 70.358C61.7963 64.8906 61.7963 51.2191 52.3214 45.7518Z" fill="white"/>
<path d="M83.8022 74.3772L49.7152 94.0538C47.28 95.4606 44.3779 95.4606 41.9486 94.0538C39.5193 92.653 38.0652 90.141 38.0652 87.3334V78.5915L64.9352 63.0818C69.1555 60.6466 74.4042 60.6407 78.6303 63.0818L83.8022 66.0667C85.3035 66.9356 86.2019 68.4901 86.2019 70.2219C86.2019 71.9597 85.3035 73.5083 83.8022 74.3772ZM25.6173 80.146C23.1821 81.5468 20.28 81.5468 17.8507 80.146C15.4155 78.7392 13.9674 76.2272 13.9674 73.4196V26.5833C13.9674 23.7817 15.4155 21.2637 17.8448 19.8629C19.0624 19.1595 20.3982 18.8108 21.734 18.8108C23.0639 18.8108 24.3997 19.1595 25.6173 19.8629L33.183 24.2309V75.7721L25.6173 80.146ZM38.0652 12.6637C38.0652 9.86198 39.5193 7.34402 41.9486 5.94319C44.3779 4.53645 47.28 4.53645 49.7152 5.94319L83.8022 25.6199C85.3035 26.4888 86.2019 28.0433 86.2019 29.7751C86.2019 31.5069 85.3035 33.0614 83.8022 33.9303L78.6303 36.9152C74.4042 39.3563 69.1555 39.3563 64.9352 36.9152L38.0652 21.4115V21.4056V12.6637ZM86.2433 61.8406L81.0714 58.8557C75.3381 55.5457 68.2216 55.5457 62.4941 58.8557L38.0652 72.9527V27.0503L62.4941 41.1473C65.3549 42.8022 68.5703 43.6297 71.7798 43.6297C74.9893 43.6297 78.2047 42.8022 81.0714 41.1473L86.2433 38.1624C89.2755 36.4128 91.0841 33.2742 91.0841 29.7751C91.0841 26.276 89.2755 23.1433 86.2433 21.3937L52.1563 1.71114C48.1962 -0.570389 43.4676 -0.570389 39.5075 1.71114C35.5473 3.99858 33.183 8.09468 33.183 12.6637V18.5921L28.0525 15.6308C24.0924 13.3434 19.3638 13.3493 15.4037 15.6367C11.4435 17.9183 9.07922 22.0144 9.07922 26.5833V73.4196C9.07922 77.9945 11.4435 82.0847 15.4096 84.3721C17.3897 85.5188 19.5589 86.0862 21.734 86.0862C23.9032 86.0862 26.0784 85.5188 28.0585 84.3721L33.183 81.4109V87.3334C33.183 91.9024 35.5473 95.9985 39.5075 98.2859C41.4875 99.4267 43.6568 100 45.8319 100C48.0011 100 50.1763 99.4267 52.1563 98.2859L86.2433 78.6092C89.2755 76.8537 91.0841 73.7211 91.0841 70.2219C91.0841 66.7228 89.2755 63.5901 86.2433 61.8406Z" fill="white"/>
</svg>
