<svg xmlns="http://www.w3.org/2000/svg" viewBox="0 0 611.999 611.999">
	<path fill="#BFC1C6"
		d="M602.884 160.183c-12.154-12.154-31.861-12.154-44.015 0a109.552 109.552 0 01-6.782 6.241L445.572 59.913a109.273 109.273 0 016.239-6.782c12.156-12.154 12.156-31.861 0-44.015-12.152-12.154-31.861-12.154-44.015 0-49.657 49.657-50.275 107.228-42.353 161.737-51.206-6.159-104.442-2.531-150.785 43.814-46.343 46.342-49.97 99.575-43.81 150.781-54.509-7.92-112.078-7.304-161.733 42.353-12.154 12.154-12.154 31.861 0 44.015 6.078 6.078 14.041 9.115 22.008 9.115 7.965 0 15.93-3.039 22.007-9.117a109.006 109.006 0 016.784-6.241l106.511 106.511a108.392 108.392 0 01-6.241 6.784c-12.154 12.154-12.154 31.859 0 44.015 6.076 6.078 14.043 9.117 22.008 9.117s15.93-3.039 22.007-9.117c49.659-49.657 50.275-107.226 42.355-161.735 51.205 6.159 104.439 2.531 150.781-43.812 46.344-46.343 49.971-99.578 43.814-150.785 54.509 7.92 112.079 7.303 161.737-42.355 12.152-12.152 12.152-31.857-.002-44.013zm-226.272 75.201c6.633 41.092 7.736 72.129-8.333 98.966l-90.633-90.633c26.838-16.069 57.874-14.966 98.966-8.333zM107.197 425c21.184-2.753 45.406.229 74.491 5.31 5.081 29.084 8.061 53.305 5.311 74.491L107.197 425zm128.185-48.384c-6.635-41.095-7.738-72.132 8.335-98.969l90.635 90.637c-26.84 16.07-57.875 14.967-98.97 8.332zM430.306 181.69c-5.081-29.087-8.061-53.309-5.31-74.495L504.8 187c-21.184 2.752-45.407-.229-74.494-5.31z" />
</svg>