<svg xmlns="http://www.w3.org/2000/svg" viewBox="0 0 293.111 293.111">
	<path fill="#BFC1C6"
		d="M254.556 165.641c0-40.149-24.176-74.738-58.703-89.956-.043-16.138-13.164-29.254-29.289-29.254h-48.595V26.229c0-4.143-3.357-7.5-7.5-7.5h-7.917C100.644 8.096 91.344 0 80.186 0S59.728 8.096 57.82 18.729h-7.919a7.499 7.499 0 00-7.5 7.5v136.496c0 4.143 3.357 7.5 7.5 7.5h.291v23.838c0 4.143 3.357 7.5 7.5 7.5h44.989c4.143 0 7.5-3.357 7.5-7.5v-23.838h.287c4.143 0 7.5-3.357 7.5-7.5v-57.621h31.035v9.872c0 4.143 3.357 7.5 7.5 7.5 23.59 0 42.782 19.236 42.782 42.881 0 23.65-18.792 42.177-42.782 42.177a7.499 7.499 0 00-7.5 7.5v8.518H48.388a7.499 7.499 0 00-7.5 7.5c0 4.143 3.357 7.5 7.5 7.5h100.616v9.042H46.056a7.5 7.5 0 00-7.5 7.5v30.518a7.5 7.5 0 007.5 7.5h156.133c4.143 0 7.5-3.357 7.5-7.5v-30.518a7.481 7.481 0 00-2.989-5.982 97.494 97.494 0 0019.09-14.603c18.55-18.226 28.766-42.684 28.766-68.868zM80.186 15c2.79 0 5.233 1.497 6.593 3.729H73.594C74.953 16.497 77.396 15 80.186 15zm14.996 171.563h-29.99v-16.338h29.989v16.338zm15.287-96.459a7.499 7.499 0 00-7.5 7.5v57.621H57.401V33.729h45.567v20.202c0 4.143 3.357 7.5 7.5 7.5h56.095c7.88 0 14.291 6.431 14.291 14.334 0 7.906-6.411 14.339-14.291 14.339h-56.094zm84.22 188.007H53.556v-15.518h141.133v15.518zm-30.685-30.839v-25.207c12.601-1.586 24.225-7.159 33.311-16.087 10.944-10.753 16.972-25.18 16.972-40.622 0-29.369-21.952-53.7-50.282-57.396v-2.857h2.56c10.829 0 20.297-5.921 25.365-14.695 28.119 13.348 47.627 42.036 47.627 75.232 0 22.128-8.622 42.786-24.279 58.168-13.848 13.606-31.833 21.789-51.274 23.464z" />
	<path fill="#BFC1C6"
		d="M172.253 76.161c0-1.979-.8-3.91-2.2-5.31a7.574 7.574 0 00-5.3-2.19c-1.97 0-3.91.8-5.3 2.19a7.55 7.55 0 00-2.2 5.31c0 1.971.8 3.91 2.2 5.3 1.39 1.4 3.33 2.2 5.3 2.2 1.97 0 3.91-.8 5.3-2.2a7.542 7.542 0 002.2-5.3z" />
</svg>